arm26Opt
version=1
nRows=28
nColumns=21
inDegrees=no
endheader
time	r_shoulder_elev	r_elbow_flex	r_shoulder_elev_u	r_elbow_flex_u	TRIlong.activation	TRIlong.fiber_length	TRIlat.activation	TRIlat.fiber_length	TRImed.activation	TRImed.fiber_length	BIClong.activation	BIClong.fiber_length	BICshort.activation	BICshort.fiber_length	BRA.activation	BRA.fiber_length	DeltAnt.activation	DeltAnt.fiber_length	DeltPost.activation	DeltPost.fiber_length
        0.788499	       -0.872738	        0.615158	        0.001659	       -0.073711	        0.119839	        0.124294	        0.076211	        0.083887	        0.072813	        0.078958	        0.038975	        0.145040	        0.035291	        0.156408	        0.044072	        0.084592	        0.051904	        0.187115	        0.191653	        0.054793
        0.788979	       -0.872737	        0.615123	        0.002581	       -0.073319	        0.119792	        0.124294	        0.076190	        0.083886	        0.072793	        0.078957	        0.038962	        0.145042	        0.035274	        0.156410	        0.044065	        0.084592	        0.051905	        0.187115	        0.191489	        0.054793
        0.789458	       -0.872736	        0.615088	        0.003479	       -0.072881	        0.119745	        0.124293	        0.076169	        0.083885	        0.072772	        0.078956	        0.038949	        0.145043	        0.035258	        0.156411	        0.044058	        0.084593	        0.051906	        0.187115	        0.191325	        0.054793
        0.790355	       -0.872732	        0.615023	        0.005082	       -0.071917	        0.119657	        0.124292	        0.076129	        0.083884	        0.072734	        0.078955	        0.038926	        0.145045	        0.035227	        0.156414	        0.044046	        0.084593	        0.051908	        0.187115	        0.191018	        0.054793
        0.791253	       -0.872727	        0.614959	        0.006578	       -0.070752	        0.119569	        0.124291	        0.076089	        0.083882	        0.072695	        0.078953	        0.038903	        0.145048	        0.035197	        0.156417	        0.044034	        0.084594	        0.051910	        0.187115	        0.190711	        0.054794
        0.792150	       -0.872720	        0.614896	        0.007968	       -0.069392	        0.119481	        0.124290	        0.076049	        0.083881	        0.072657	        0.078952	        0.038880	        0.145050	        0.035167	        0.156419	        0.044022	        0.084595	        0.051912	        0.187115	        0.190404	        0.054794
        0.793048	       -0.872713	        0.614834	        0.009265	       -0.067861	        0.119392	        0.124289	        0.076009	        0.083880	        0.072618	        0.078951	        0.038857	        0.145052	        0.035137	        0.156422	        0.044010	        0.084596	        0.051914	        0.187115	        0.190097	        0.054795
        0.793945	       -0.872704	        0.614774	        0.010483	       -0.066188	        0.119304	        0.124287	        0.075969	        0.083879	        0.072579	        0.078950	        0.038835	        0.145054	        0.035108	        0.156424	        0.043998	        0.084596	        0.051916	        0.187114	        0.189790	        0.054795
        0.795854	       -0.872681	        0.614652	        0.012869	       -0.062280	        0.119115	        0.124285	        0.075884	        0.083876	        0.072497	        0.078947	        0.038789	        0.145059	        0.035047	        0.156429	        0.043974	        0.084598	        0.051919	        0.187114	        0.189138	        0.054797
        0.797762	       -0.872655	        0.614537	        0.015080	       -0.058105	        0.118925	        0.124284	        0.075798	        0.083873	        0.072414	        0.078944	        0.038744	        0.145063	        0.034988	        0.156434	        0.043950	        0.084599	        0.051922	        0.187113	        0.188487	        0.054798
        0.799670	       -0.872624	        0.614430	        0.017232	       -0.053901	        0.118734	        0.124282	        0.075712	        0.083871	        0.072331	        0.078942	        0.038700	        0.145067	        0.034931	        0.156438	        0.043927	        0.084601	        0.051925	        0.187113	        0.187836	        0.054800
        0.801579	       -0.872589	        0.614331	        0.019423	       -0.049868	        0.118542	        0.124281	        0.075626	        0.083869	        0.072248	        0.078940	        0.038657	        0.145071	        0.034875	        0.156442	        0.043905	        0.084602	        0.051928	        0.187112	        0.187185	        0.054803
        0.803487	       -0.872550	        0.614239	        0.021721	       -0.046141	        0.118350	        0.124280	        0.075540	        0.083867	        0.072164	        0.078938	        0.038616	        0.145075	        0.034821	        0.156446	        0.043883	        0.084603	        0.051930	        0.187111	        0.186535	        0.054806
        0.806061	       -0.872489	        0.614126	        0.025024	       -0.041667	        0.118089	        0.124278	        0.075423	        0.083864	        0.072051	        0.078935	        0.038562	        0.145080	        0.034751	        0.156450	        0.043855	        0.084605	        0.051933	        0.187110	        0.185659	        0.054810
        0.808636	       -0.872420	        0.614024	        0.028540	       -0.037788	        0.117827	        0.124278	        0.075305	        0.083862	        0.071938	        0.078933	        0.038511	        0.145084	        0.034685	        0.156454	        0.043828	        0.084606	        0.051936	        0.187108	        0.184783	        0.054815
        0.811210	       -0.872342	        0.613931	        0.032188	       -0.034331	        0.117563	        0.124277	        0.075187	        0.083860	        0.071824	        0.078931	        0.038462	        0.145088	        0.034621	        0.156457	        0.043803	        0.084608	        0.051937	        0.187107	        0.183909	        0.054820
        0.813785	       -0.872255	        0.613847	        0.035873	       -0.031103	        0.117298	        0.124277	        0.075068	        0.083858	        0.071710	        0.078929	        0.038416	        0.145092	        0.034561	        0.156459	        0.043779	        0.084609	        0.051939	        0.187105	        0.183035	        0.054826
        0.816360	       -0.872158	        0.613771	        0.039538	       -0.027980	        0.117032	        0.124277	        0.074949	        0.083857	        0.071595	        0.078928	        0.038372	        0.145095	        0.034505	        0.156461	        0.043756	        0.084610	        0.051939	        0.187102	        0.182163	        0.054833
        0.819477	       -0.872028	        0.613690	        0.043935	       -0.024317	        0.116708	        0.124278	        0.074804	        0.083855	        0.071456	        0.078926	        0.038323	        0.145098	        0.034441	        0.156463	        0.043731	        0.084611	        0.051939	        0.187099	        0.181108	        0.054842
        0.822594	       -0.871884	        0.613619	        0.048323	       -0.020848	        0.116382	        0.124279	        0.074659	        0.083854	        0.071316	        0.078925	        0.038277	        0.145101	        0.034382	        0.156463	        0.043707	        0.084613	        0.051939	        0.187096	        0.180055	        0.054852
        0.825711	       -0.871726	        0.613559	        0.052756	       -0.017676	        0.116055	        0.124280	        0.074513	        0.083853	        0.071175	        0.078924	        0.038236	        0.145103	        0.034328	        0.156463	        0.043686	        0.084614	        0.051939	        0.187092	        0.179003	        0.054862
        0.828828	       -0.871555	        0.613509	        0.057272	       -0.014853	        0.115725	        0.124282	        0.074366	        0.083852	        0.071034	        0.078923	        0.038198	        0.145105	        0.034279	        0.156461	        0.043667	        0.084615	        0.051939	        0.187088	        0.177953	        0.054874
        0.831945	       -0.871369	        0.613466	        0.061874	       -0.012358	        0.115394	        0.124284	        0.074219	        0.083852	        0.070893	        0.078923	        0.038164	        0.145107	        0.034236	        0.156459	        0.043650	        0.084615	        0.051938	        0.187084	        0.176905	        0.054887
        0.834693	       -0.871193	        0.613435	        0.065987	       -0.010370	        0.115100	        0.124286	        0.074088	        0.083852	        0.070768	        0.078923	        0.038138	        0.145108	        0.034202	        0.156456	        0.043637	        0.084616	        0.051938	        0.187080	        0.175983	        0.054899
        0.837442	       -0.871006	        0.613409	        0.070139	       -0.008537	        0.114806	        0.124289	        0.073957	        0.083852	        0.070643	        0.078922	        0.038115	        0.145108	        0.034173	        0.156452	        0.043625	        0.084617	        0.051937	        0.187076	        0.175062	        0.054912
        0.840190	       -0.870808	        0.613388	        0.074326	       -0.006842	        0.114510	        0.124292	        0.073826	        0.083852	        0.070517	        0.078922	        0.038094	        0.145108	        0.034147	        0.156448	        0.043615	        0.084617	        0.051936	        0.187071	        0.174142	        0.054926
        0.842939	       -0.870598	        0.613371	        0.078550	       -0.005275	        0.114212	        0.124295	        0.073694	        0.083852	        0.070391	        0.078923	        0.038078	        0.145108	        0.034127	        0.156443	        0.043607	        0.084617	        0.051935	        0.187066	        0.173225	        0.054940
        0.846631	       -0.870297	        0.613355	        0.084287	       -0.003351	        0.113811	        0.124299	        0.073517	        0.083852	        0.070221	        0.078923	        0.038060	        0.145107	        0.034105	        0.156435	        0.043599	        0.084618	        0.051932	        0.187059	        0.171994	        0.054961
